<svg viewBox="0 0 1024 1024" xmlns="http://www.w3.org/2000/svg">
  <path fill="currentColor" opacity="0.4" d="M701.952 593.92h116.224c14.848 0 27.136-12.288 27.136-27.136v-76.8c0-14.848-12.288-27.136-27.136-27.136h-116.224c-14.848 0-27.136 12.288-27.136 27.136v76.8c0 15.36 11.776 27.136 27.136 27.136zM249.856 272.384c30.208 0 54.784-24.576 54.784-54.784V54.784C304.64 24.576 280.064 0 249.856 0S194.56 24.576 194.56 54.784v162.304c0 30.72 25.088 55.296 55.296 55.296zM701.952 819.2h116.224c14.848 0 27.136-12.288 27.136-27.136v-76.8c0-14.848-12.288-27.136-27.136-27.136h-116.224c-14.848 0-27.136 12.288-27.136 27.136v76.8c0 14.848 11.776 27.136 27.136 27.136zM773.12 272.384c30.208 0 54.784-24.576 54.784-54.784V54.784C828.416 24.576 803.328 0 773.12 0s-54.784 24.576-54.784 54.784v162.304c0 30.72 24.576 55.296 54.784 55.296zM454.144 819.2h116.224c14.848 0 27.136-12.288 27.136-27.136v-76.8c0-14.848-12.288-27.136-27.136-27.136H454.144c-14.848 0-27.136 12.288-27.136 27.136v76.8c0 14.848 11.776 27.136 27.136 27.136zM454.144 593.92h116.224c14.848 0 27.136-12.288 27.136-27.136v-76.8c0-14.848-12.288-27.136-27.136-27.136H454.144c-14.848 0-27.136 12.288-27.136 27.136v76.8c0 15.36 11.776 27.136 27.136 27.136zM206.336 819.2H322.56c14.848 0 27.136-12.288 27.136-27.136v-76.8c0-14.848-12.288-27.136-27.136-27.136H206.336c-14.848 0-27.136 12.288-27.136 27.136v76.8c0 14.848 11.776 27.136 27.136 27.136zM206.336 593.92H322.56c14.848 0 27.136-12.288 27.136-27.136v-76.8c0-14.848-12.288-27.136-27.136-27.136H206.336c-14.848 0-27.136 12.288-27.136 27.136v76.8c0 15.36 11.776 27.136 27.136 27.136z"/>
  <path fill="currentColor" d="M930.816 98.816h-68.608v118.784c0 48.64-39.936 88.576-88.576 88.576s-88.576-39.936-88.576-88.576V98.816H338.432v118.784c0 48.64-39.936 88.576-88.576 88.576S161.28 266.24 161.28 217.6V98.816H93.184C41.984 98.816 0 140.8 0 192v738.304C0 982.016 41.984 1024 93.184 1024h837.12c51.2 0 93.184-41.984 93.184-93.184V192c0.512-51.2-41.472-93.184-92.672-93.184z m11.776 832c0 6.656-5.632 12.288-12.288 12.288H93.184c-6.656 0-12.288-5.632-12.288-12.288V344.576h861.696v586.24z"/>
</svg>
