<svg viewBox="0 0 1024 1024" width="18" height="18" xmlns="http://www.w3.org/2000/svg">
  <path fill="currentColor" d="M36.162 988.38h951.676c20.286 0 36.162-15.994 36.162-36.43V138.957c0-20.436-15.876-36.43-36.162-36.43H808.792V71.43C808.792 50.993 792.916 35 772.63 35c-20.285 0-36.161 15.993-36.161 36.43v31.097H293.705V71.43C293.705 50.993 277.83 35 257.543 35c-20.285 0-36.161 15.993-36.161 36.43v31.097H36.162C15.876 102.527 0 118.521 0 138.957v813.882c0 19.547 16.758 35.54 36.162 35.54z m36.162-812.994h149.058v19.547c0 20.436 15.876 36.43 36.161 36.43 20.286 0 36.162-15.994 36.162-36.43v-19.547H736.47v19.547c0 20.436 15.876 36.43 36.161 36.43 20.286 0 36.162-15.994 36.162-36.43v-19.547h143.766v94.183H72.324v-94.183z m0 167.041h879.352V916.41H72.324V342.427zM772.63 509.468H252.252c-20.286 0-36.162 15.994-36.162 36.43 0 20.435 15.876 36.429 36.162 36.429H772.63c20.286 0 36.162-15.994 36.162-36.43 0-20.435-15.876-36.429-36.162-36.429zM512.441 685.395h-260.19c-20.285 0-36.161 15.993-36.161 36.43 0 20.435 15.876 36.428 36.162 36.428H512.44c20.286 0 36.162-15.993 36.162-36.429s-15.876-36.43-36.162-36.43z" />
</svg>
