<svg class="mr-2" viewBox="0 0 1024 1024" xmlns="http://www.w3.org/2000/svg">
  <path fill="currentColor" d="M896.8 282.5l-55.2 32.3c9.2 15.3 17.4 31.4 24.4 48 20 47.3 30.2 97.6 30.2 149.4S886 614.4 865.9 661.7c-19.3 45.7-47 86.8-82.3 122.1s-76.4 63-122.1 82.3c-47.3 20-97.6 30.1-149.4 30.1s-102.2-10.1-149.4-30.1c-4.8-2-9.6-4.2-14.3-6.4-40-18.9-76.2-44.4-107.8-75.9-25.4-25.4-47-53.9-64.2-85-6.7-12-12.7-24.4-18.1-37.1-20-47.3-30.2-97.6-30.2-149.5s10.1-102.1 30.2-149.4c19.3-45.7 47-86.8 82.3-122.1s76.4-63 122.1-82.3c47.3-20 97.6-30.1 149.4-30.1s102.2 10.1 149.4 30.1c2.9 1.2 5.8 2.5 8.7 3.8l27.1-58c-56.5-25.7-119.2-40-185.2-40-247.4 0-448 200.6-448 448 0 79.5 20.7 154.1 57 218.9 45.5 81.1 115.6 146.7 200.1 186.5 57.9 27.3 122.6 42.6 190.8 42.6 247.4 0 448-200.6 448-448 0.1-84-23-162.5-63.2-229.7z" />
  <path fill="currentColor" d="M758.1 201.9a32 32 0 1 0 64 0 32 32 0 1 0-64 0zM670.5 353.8c-12.5-12.5-32.8-12.5-45.3 0L512.1 467 399 353.8c-12.5-12.5-32.8-12.5-45.3 0s-12.5 32.8 0 45.3l113.1 113.1-113.1 113.2c-12.5 12.5-12.5 32.8 0 45.3s32.8 12.5 45.3 0l113.1-113.1 113.1 113.1c12.5 12.5 32.8 12.5 45.3 0s12.5-32.8 0-45.3L557.4 512.2l113.1-113.1c12.5-12.5 12.5-32.8 0-45.3z"/>
</svg>
