<svg viewBox="0 0 1024 1024" xmlns="http://www.w3.org/2000/svg">
  <path d="M936.19430083 229.20379943L87.80569917 229.20379943c-26.01725045 0-47.1327001-21.11544964-47.1327001-47.13270007s21.11544964-47.1327001 47.1327001-47.13270011l848.38860166 0c26.06438315 0 47.1327001 21.11544964 47.1327001 47.13270011S962.25868398 229.20379943 936.19430083 229.20379943z"/>
  <path d="M936.19430083 559.1327001L87.80569917 559.1327001c-26.01725045 0-47.1327001-21.11544964-47.1327001-47.1327001s21.11544964-47.1327001 47.1327001-47.1327001l848.38860166 0c26.06438315 0 47.1327001 21.11544964 47.1327001 47.1327001S962.25868398 559.1327001 936.19430083 559.1327001z" />
  <path d="M936.19430083 889.06160075L87.80569917 889.06160075c-26.01725045 0-47.1327001-21.11544964-47.1327001-47.13270011s21.11544964-47.1327001 47.1327001-47.13270007l848.38860166 0c26.06438315 0 47.1327001 21.11544964 47.1327001 47.13270007S962.25868398 889.06160075 936.19430083 889.06160075z"/>
</svg>
