<svg viewBox="0 0 1024 1024" width="23" height="23" xmlns="http://www.w3.org/2000/svg">
  <path fill="currentColor" d="M943.9 220l0.1 0.1v583.7l-0.1 0.1H80.2l-0.1-0.1V220.1l0.1-0.1h863.7m0.1-80H80c-44 0-80 36-80 80v584c0 44 36 80 80 80h864c44 0 80-36 80-80V220c0-44-36-80-80-80z" />
  <path fill="currentColor" d="M341.4 380c18.4 0 33.3 14.2 33.3 31.7s-14.9 31.7-33.3 31.7-33.3-14.2-33.3-31.7 15-31.7 33.3-31.7M388 614.1c22.8 0 42.7 11.7 53.8 29.2-16 0.7-34.4 0.7-53.8 0.7h-85c-19.4 0-38 0-53.8-0.6 11.1-17.5 31.1-29.3 53.8-29.3h85M341.4 300c-62.5 0-113.3 50.1-113.3 111.7s50.8 111.7 113.3 111.7 113.3-50.1 113.3-111.7C454.8 350.1 404 300 341.4 300zM388 534.1h-85c-78.9 0-143.1 63.2-143.1 140.9v8.4c0 40.5 63.2 40.5 143.1 40.5h85c76.8 0 143.1 0 143.1-40.5V675c0-77.7-64.2-140.9-143.1-140.9zM824 380H604c-22 0-40-18-40-40s18-40 40-40h220c22 0 40 18 40 40s-18 40-40 40zM824 540H659c-22 0-40-18-40-40s18-40 40-40h165c22 0 40 18 40 40s-18 40-40 40zM824 700H659c-22 0-40-18-40-40s18-40 40-40h165c22 0 40 18 40 40s-18 40-40 40z" />
</svg>
