<svg viewBox="0 0 1024 1024" width="23" height="23" xmlns="http://www.w3.org/2000/svg">
  <path fill="currentColor" d="M510.610286 1024c-130.706286 0-261.376-48.310857-362.203429-148.662857-197.851429-200.740571-197.851429-524.068571 0-724.809143 201.654857-200.704 526.482286-200.704 724.370286 0 201.618286 200.704 201.618286 524.068571 0 721.078857C775.716571 971.958857 641.28 1024 510.610286 1024z m-0.548572-950.857143A436.114286 436.114286 0 0 0 200.777143 200.740571c-170.130286 170.130286-170.130286 452.388571 0 622.518858 170.130286 170.130286 452.388571 170.130286 622.518857 0 170.130286-170.130286 170.130286-452.388571 0-622.518858C738.194286 115.675429 622.189714 73.142857 510.061714 73.142857zM512 256a36.571429 36.571429 0 0 1 36.571429 36.571429v292.571428a36.571429 36.571429 0 0 1-73.142858 0V292.571429a36.571429 36.571429 0 0 1 36.571429-36.571429z m171.739429 433.956571a36.571429 36.571429 0 0 1-49.956572 13.385143l-126.683428-73.142857a36.571429 36.571429 0 0 1 36.571428-63.341714l126.683429 73.142857a36.571429 36.571429 0 0 1 13.385143 49.956571z" />
</svg>
