<svg viewBox="0 0 1024 1024" width="18" height="18" xmlns="http://www.w3.org/2000/svg">
  <path fill="currentColor" d="M512.049966 1023.300478c-282.57983 0-511.650239-229.078403-511.650239-511.650239s229.070409-511.650239 511.650239-511.650239c282.571836 0 511.650239 229.078403 511.650239 511.650239s-229.078403 511.650239-511.650239 511.650239z m0-965.319114c-250.551724 0-453.668875 203.116151-453.668875 453.667876 0 250.552724 203.11715 453.669874 453.668875 453.669874 250.552724 0 453.668875-203.11715 453.668875-453.668875 0-250.552724-203.11715-453.668875-453.668875-453.668875z m262.08584 581.956179c-7.046183 15.097679-25.033887 21.584245-40.130567 14.507083l-240.434641-80.381052c-11.499139-5.367331-17.898765-17.045348-17.250208-28.985186-0.147899-1.209173-0.707516-2.211488-0.707516-3.449642V209.488795c0-16.689591 13.504768-30.194359 30.194359-30.19436s30.194359 13.504768 30.19436 30.19436v315.50832l223.598149 74.777883c15.12666 7.077162 21.614225 25.034886 14.536064 40.162545z" />
</svg>
