<svg viewBox="0 0 1024 1024" width="21" height="22" xmlns="http://www.w3.org/2000/svg">
  <path fill="currentColor" d="M874.666667 401.066667h-529.066667v-153.6c0-76.8 76.8-145.066667 170.666667-145.066667s170.666667 68.266667 170.666666 145.066667v8.533333c0 25.6 25.6 51.2 51.2 51.2s51.2-25.6 51.2-51.2c0-153.6-128-256-281.6-256-153.6 0-281.6 102.4-281.6 256v136.533333h-76.8c-42.666667 0-68.266667 34.133333-68.266666 68.266667v494.933333c0 42.666667 34.133333 68.266667 68.266666 68.266667h716.8c42.666667 0 68.266667-34.133333 68.266667-68.266667v-494.933333c8.533333-34.133333-17.066667-59.733333-59.733333-59.733333z m-315.733334 324.266666v110.933334c0 8.533333-8.533333 8.533333-8.533333 8.533333h-59.733333c-8.533333 0-8.533333-8.533333-8.533334-8.533333v-110.933334c-34.133333-17.066667-51.2-42.666667-51.2-68.266666 0-42.666667 42.666667-85.333333 85.333334-85.333334s85.333333 42.666667 85.333333 85.333334c0 34.133333-17.066667 59.733333-42.666667 68.266666z" />
</svg>
