<svg xmlns="http://www.w3.org/2000/svg" viewBox="0 0 1024 1024" width="18" height="18">
  <path fill="currentColor" d="M761.6 301.653333c0-75.434667-28.501333-146.176-80.213333-199.424a268.117333 268.117333 0 0 0-387.157334 0 284.672 284.672 0 0 0-80.213333 199.424c0 58.453333 17.152 114.517333 49.664 162.133334a28.16 28.16 0 0 0 40.021333 7.168 30.208 30.208 0 0 0 6.997334-41.216c-25.6-37.632-39.253333-81.92-39.253334-128.085334 0-122.88 97.024-222.890667 216.32-222.890666 119.381333 0 216.405333 99.925333 216.405334 222.890666 0 122.88-97.024 222.976-216.405334 222.976-58.88 0-116.053333 11.776-170.069333 35.413334a434.944 434.944 0 0 0-138.922667 96.426666A448.256 448.256 0 0 0 85.162667 799.573333a459.52 459.52 0 0 0-34.389334 175.274667c0 16.384 12.8 29.610667 28.672 29.610667a29.098667 29.098667 0 0 0 28.757334-29.610667c0-215.552 170.24-390.997333 379.477333-390.997333a267.946667 267.946667 0 0 0 193.621333-82.602667 284.330667 284.330667 0 0 0 80.213334-199.594667z m173.397333 316.330667l-79.530666-82.005333a27.221333 27.221333 0 0 0-18.688-8.106667 25.514667 25.514667 0 0 0-18.602667 8.106667L579.754667 781.653333a27.904 27.904 0 0 0-7.850667 19.370667v82.005333c0 15.104 11.776 27.392 26.538667 27.392h79.616a25.941333 25.941333 0 0 0 18.602666-8.277333l238.506667-245.674667a27.904 27.904 0 0 0-0.170667-38.485333z m-261.973333 253.44h-63.146667v-65.621333l151.04-155.648 63.402667 65.365333-151.210667 155.904z m181.418667-186.965333l-63.402667-65.365334 45.909333-47.36 63.402667 65.450667-45.909333 47.274667z m94.976 312.661333H562.688a24.149333 24.149333 0 0 1-23.722667-24.490667c0-13.397333 10.666667-24.405333 23.722667-24.405333h386.730667c12.970667 0 23.722667 11.008 23.722666 24.405333a24.064 24.064 0 0 1-23.722666 24.490667z"/>
</svg>
